<svg width="90" height="90" viewBox="0 0 90 90" fill="none" xmlns="http://www.w3.org/2000/svg">
<g clip-path="url(#clip0_1_197)">
<path d="M45 90C20.187 90 0 69.813 0 45C0 20.187 20.187 0 45 0C69.813 0 90 20.187 90 45C90 69.813 69.813 90 45 90ZM45 1.4274C20.9736 1.4274 1.4274 20.9736 1.4274 45C1.4274 69.0264 20.9736 88.5726 45 88.5726C69.0264 88.5726 88.5726 69.0264 88.5726 45C88.5726 20.9736 69.0264 1.4274 45 1.4274Z" fill="#E9AD21"/>
<path d="M45 78.6726C44.7912 78.6726 44.5932 78.5826 44.4582 78.4242L37.6524 70.4772C37.4706 70.2666 37.4292 69.9678 37.5462 69.7158C37.6632 69.462 37.917 69.3 38.1942 69.3H41.085V60.5304C41.085 60.1362 41.4054 59.8176 41.7978 59.8176C42.1902 59.8176 42.5106 60.138 42.5106 60.5304V70.0128C42.5106 70.407 42.1902 70.7256 41.7978 70.7256H39.744L45 76.8618L50.256 70.7256H48.2022C47.808 70.7256 47.4894 70.4052 47.4894 70.0128V60.5304C47.4894 60.1362 47.8098 59.8176 48.2022 59.8176C48.5946 59.8176 48.915 60.138 48.915 60.5304V69.3H51.8058C52.083 69.3 52.3386 69.4638 52.4538 69.7158C52.5708 69.9678 52.5294 70.2666 52.3476 70.4772L45.5418 78.4242C45.4068 78.5826 45.2088 78.6726 45 78.6726Z" fill="#E9AD21"/>
<path d="M64.2474 73.1466C64.2276 73.1466 64.2078 73.1466 64.188 73.1448L54.783 72.3438C54.5058 72.3204 54.2664 72.1368 54.1728 71.8758C54.0774 71.6148 54.1458 71.3196 54.342 71.1252L56.2158 69.2784L55.9944 68.9922C53.7426 66.078 52.2702 62.4888 51.8508 58.8852C51.8292 58.6962 51.8814 58.509 52.0002 58.3596C52.119 58.2102 52.2882 58.1166 52.4772 58.0932C52.5096 58.0896 52.5366 58.0878 52.5654 58.0878C52.9182 58.0878 53.2278 58.365 53.2692 58.7196C53.6994 62.4114 55.2834 66.0114 57.7278 68.859C57.969 69.1398 57.9528 69.5664 57.69 69.8274L56.448 71.0532L63.4788 71.6526L62.9892 64.6128L61.821 65.7684C61.6896 65.8998 61.506 65.9736 61.3206 65.9736H61.2828C61.0812 65.9628 60.894 65.8674 60.768 65.7126C59.004 63.5598 57.9006 60.966 57.5784 58.212L57.4164 56.8044C57.3714 56.4138 57.6522 56.0592 58.0428 56.0142C58.0788 56.0088 58.1094 56.007 58.1382 56.007C58.4874 56.007 58.7934 56.286 58.8348 56.6406L58.9968 58.0464C59.2362 60.0858 59.967 62.0694 61.1118 63.7794L61.3872 64.1916L63.0954 62.5032C63.2286 62.3718 63.4122 62.2962 63.5994 62.2962C63.6858 62.2962 63.7686 62.3124 63.8478 62.3412C64.1088 62.4402 64.2888 62.6814 64.3086 62.9604L64.9638 72.3834C64.9782 72.5922 64.9008 72.7938 64.7532 72.9414C64.6182 73.0746 64.44 73.1466 64.2528 73.1466H64.2474Z" fill="#E9AD21"/>
<path d="M25.749 73.1466C25.56 73.1466 25.3818 73.0746 25.2486 72.9414C25.101 72.7956 25.0236 72.5904 25.038 72.3834L25.7022 62.9604C25.722 62.6832 25.902 62.4402 26.163 62.343C26.2422 62.3142 26.3268 62.298 26.4114 62.298C26.6022 62.298 26.7804 62.3718 26.9154 62.5032L28.6218 64.1898L28.8972 63.7776C30.0438 62.0586 30.7728 60.0768 31.005 58.0482L31.176 56.637C31.2192 56.2788 31.5252 56.0106 31.887 56.0106C31.9158 56.0106 31.9428 56.0106 31.9716 56.016C32.3604 56.0628 32.6394 56.4192 32.5926 56.8098L32.4216 58.2156C32.1102 60.9516 31.0104 63.5418 29.241 65.7108C29.115 65.8656 28.9278 65.961 28.7262 65.9718C28.7118 65.9718 28.6974 65.9718 28.6848 65.9718C28.4994 65.9718 28.3212 65.898 28.1862 65.7648L27.0162 64.6074L26.5194 71.649L33.5502 71.0514L32.3352 69.8562C32.0598 69.5844 32.031 69.1362 32.2704 68.8572C34.7238 66.0096 36.306 62.4114 36.7272 58.7214C36.7686 58.3614 37.0746 58.0878 37.4382 58.0878C37.4652 58.0878 37.4922 58.0878 37.5192 58.0932C37.9098 58.1382 38.1924 58.4928 38.1474 58.8834C37.7352 62.4888 36.2646 66.078 34.0056 68.9922L33.7824 69.2784L35.6562 71.1234C35.8542 71.3178 35.9208 71.613 35.8254 71.874C35.7318 72.135 35.4924 72.3186 35.2152 72.342L25.8102 73.143C25.7886 73.1448 25.7688 73.1466 25.749 73.1466Z" fill="#E9AD21"/>
<path d="M27.6587 60.192C27.5165 60.192 27.3779 60.1488 27.2591 60.0678C24.9227 58.482 23.5295 55.8504 23.5295 53.0298V27.3834C23.5295 22.6962 27.3437 18.882 32.0309 18.882H57.9815C62.6633 18.882 66.4739 22.6962 66.4739 27.3834V53.0298C66.4739 55.8504 65.0789 58.482 62.7443 60.0678C62.6255 60.1488 62.4869 60.192 62.3447 60.192C62.1071 60.192 61.8857 60.075 61.7525 59.8788C61.6445 59.7204 61.6067 59.5314 61.6409 59.3442C61.6769 59.157 61.7831 58.995 61.9415 58.8888C63.8855 57.5694 65.0465 55.3788 65.0465 53.0316V27.3834C65.0465 23.4828 61.8767 20.3094 57.9815 20.3094H32.0309C28.1303 20.3094 24.9569 23.4828 24.9569 27.3834V53.0298C24.9569 55.377 26.1179 57.5676 28.0619 58.887C28.2203 58.9932 28.3265 59.157 28.3625 59.3424C28.3985 59.5296 28.3589 59.7204 28.2509 59.877C28.1177 60.0732 27.8963 60.1902 27.6605 60.1902L27.6587 60.192Z" fill="#E9AD21"/>
<path d="M31.6512 28.8864C31.257 28.8864 30.9384 28.566 30.9384 28.1736C30.9384 27.7812 31.2588 27.4608 31.6512 27.4608H58.3488C58.743 27.4608 59.0616 27.7812 59.0616 28.1736C59.0616 28.566 58.7412 28.8864 58.3488 28.8864H31.6512Z" fill="#E9AD21"/>
<path d="M31.6512 34.9056C31.257 34.9056 30.9384 34.5852 30.9384 34.1928C30.9384 33.8004 31.2588 33.48 31.6512 33.48H58.3488C58.743 33.48 59.0616 33.8004 59.0616 34.1928C59.0616 34.5852 58.7412 34.9056 58.3488 34.9056H31.6512Z" fill="#E9AD21"/>
<path d="M31.6512 40.9266C31.257 40.9266 30.9384 40.6062 30.9384 40.2138C30.9384 39.8214 31.2588 39.501 31.6512 39.501H58.3488C58.743 39.501 59.0616 39.8214 59.0616 40.2138C59.0616 40.6062 58.7412 40.9266 58.3488 40.9266H31.6512Z" fill="#E9AD21"/>
<path d="M31.6512 46.9476C31.257 46.9476 30.9384 46.6272 30.9384 46.2348C30.9384 45.8424 31.2588 45.522 31.6512 45.522H58.3488C58.743 45.522 59.0616 45.8424 59.0616 46.2348C59.0616 46.6272 58.7412 46.9476 58.3488 46.9476H31.6512Z" fill="#E9AD21"/>
<path d="M31.6512 52.9686C31.257 52.9686 30.9384 52.6482 30.9384 52.2558C30.9384 51.8634 31.2588 51.543 31.6512 51.543H58.3488C58.743 51.543 59.0616 51.8634 59.0616 52.2558C59.0616 52.6482 58.7412 52.9686 58.3488 52.9686H31.6512Z" fill="#E9AD21"/>
</g>
<defs>
<clipPath id="clip0_1_197">
<rect width="90" height="90" fill="white"/>
</clipPath>
</defs>
</svg>
