<svg width="90" height="90" viewBox="0 0 90 90" fill="none" xmlns="http://www.w3.org/2000/svg">
<g clip-path="url(#clip0_1_218)">
<path d="M62.6903 45.7145C62.2961 45.7145 61.9775 45.3941 61.9775 45.0017C61.9775 44.6093 62.2979 44.2889 62.6903 44.2889H68.5691C68.9633 44.2889 69.2819 44.6093 69.2819 45.0017C69.2819 45.3941 68.9615 45.7145 68.5691 45.7145H62.6903Z" fill="#E9AD21"/>
<path d="M62.2044 52.3098C61.8102 52.3098 61.4916 51.9894 61.4916 51.597C61.4916 51.2046 61.812 50.8842 62.2044 50.8842H71.9352C72.3294 50.8842 72.648 51.2046 72.648 51.597C72.648 51.9894 72.3276 52.3098 71.9352 52.3098H62.2044Z" fill="#E9AD21"/>
<path d="M61.5672 58.9068C61.173 58.9068 60.8544 58.5864 60.8544 58.194C60.8544 57.8016 61.1748 57.4812 61.5672 57.4812H68.5692C68.9634 57.4812 69.282 57.8016 69.282 58.194C69.282 58.5864 68.9616 58.9068 68.5692 58.9068H61.5672Z" fill="#E9AD21"/>
<path d="M61.5672 32.5206C61.173 32.5206 60.8544 32.2002 60.8544 31.8078C60.8544 31.4154 61.1748 31.095 61.5672 31.095H68.5692C68.9634 31.095 69.282 31.4154 69.282 31.8078C69.282 32.2002 68.9616 32.5206 68.5692 32.5206H61.5672Z" fill="#E9AD21"/>
<path d="M62.2044 39.1176C61.8102 39.1176 61.4916 38.7972 61.4916 38.4048C61.4916 38.0124 61.812 37.692 62.2044 37.692H71.9352C72.3294 37.692 72.648 38.0124 72.648 38.4048C72.648 38.7972 72.3276 39.1176 71.9352 39.1176H62.2044Z" fill="#E9AD21"/>
<path d="M45 90C20.187 90 0 69.813 0 45C0 20.187 20.187 0 45 0C69.813 0 90 20.187 90 45C90 69.813 69.813 90 45 90ZM45 1.4274C20.9736 1.4274 1.4274 20.9736 1.4274 45C1.4274 69.0264 20.9736 88.5726 45 88.5726C69.0264 88.5726 88.5726 69.0264 88.5726 45C88.5726 20.9736 69.0264 1.4274 45 1.4274Z" fill="#E9AD21"/>
<path d="M35.4816 62.6741C30.9852 62.6741 27.3258 59.0165 27.3258 54.5201V35.4851C27.3258 30.9887 30.9834 27.3293 35.4816 27.3293H54.5166C59.013 27.3293 62.6706 30.9887 62.6706 35.4851V54.5201C62.6706 59.0165 59.013 62.6741 54.5166 62.6741H35.4816ZM35.4816 28.7549C31.7718 28.7549 28.7532 31.7735 28.7532 35.4833V54.5183C28.7532 58.2281 31.7718 61.2467 35.4816 61.2467H54.5166C58.2264 61.2467 61.245 58.2281 61.245 54.5183V35.4833C61.245 31.7735 58.2264 28.7549 54.5166 28.7549H35.4816Z" fill="#E9AD21"/>
<path d="M45 28.0242C44.6058 28.0242 44.2872 27.7038 44.2872 27.3114V21.4308C44.2872 21.0366 44.6076 20.718 45 20.718C45.3924 20.718 45.7128 21.0384 45.7128 21.4308V27.3114C45.7128 27.7056 45.3924 28.0242 45 28.0242Z" fill="#E9AD21"/>
<path d="M51.597 28.5084C51.2028 28.5084 50.8842 28.188 50.8842 27.7956V18.063C50.8842 17.6688 51.2046 17.3502 51.597 17.3502C51.9894 17.3502 52.3098 17.6706 52.3098 18.063V27.7956C52.3098 28.1898 51.9894 28.5084 51.597 28.5084Z" fill="#E9AD21"/>
<path d="M58.1922 29.1475C57.7998 29.1475 57.4794 28.827 57.4794 28.4346V21.4326C57.4794 21.0384 57.7998 20.7198 58.1922 20.7198C58.5846 20.7198 58.905 21.0402 58.905 21.4326V28.4346C58.905 28.8288 58.5846 29.1475 58.1922 29.1475Z" fill="#E9AD21"/>
<path d="M31.8078 29.1475C31.4154 29.1475 31.095 28.827 31.095 28.4346V21.4326C31.095 21.0384 31.4154 20.7198 31.8078 20.7198C32.2002 20.7198 32.5206 21.0402 32.5206 21.4326V28.4346C32.5206 28.8288 32.2002 29.1475 31.8078 29.1475Z" fill="#E9AD21"/>
<path d="M38.403 28.5084C38.0088 28.5084 37.6902 28.188 37.6902 27.7956V18.063C37.6902 17.6688 38.0106 17.3502 38.403 17.3502C38.7954 17.3502 39.1158 17.6706 39.1158 18.063V27.7956C39.1158 28.1898 38.7954 28.5084 38.403 28.5084Z" fill="#E9AD21"/>
<path d="M45 69.2838C44.6058 69.2838 44.2872 68.9634 44.2872 68.571V62.6922C44.2872 62.298 44.6076 61.9794 45 61.9794C45.3924 61.9794 45.7128 62.2998 45.7128 62.6922V68.571C45.7128 68.9652 45.3924 69.2838 45 69.2838Z" fill="#E9AD21"/>
<path d="M51.597 72.6516C51.2028 72.6516 50.8842 72.3312 50.8842 71.9388V62.2062C50.8842 61.812 51.2046 61.4934 51.597 61.4934C51.9894 61.4934 52.3098 61.8138 52.3098 62.2062V71.9388C52.3098 72.333 51.9894 72.6516 51.597 72.6516Z" fill="#E9AD21"/>
<path d="M58.1922 69.2838C57.7998 69.2838 57.4794 68.9634 57.4794 68.571V61.569C57.4794 61.1748 57.7998 60.8562 58.1922 60.8562C58.5846 60.8562 58.905 61.1766 58.905 61.569V68.571C58.905 68.9652 58.5846 69.2838 58.1922 69.2838Z" fill="#E9AD21"/>
<path d="M31.8078 69.2838C31.4154 69.2838 31.095 68.9634 31.095 68.571V61.569C31.095 61.1748 31.4154 60.8562 31.8078 60.8562C32.2002 60.8562 32.5206 61.1766 32.5206 61.569V68.571C32.5206 68.9652 32.2002 69.2838 31.8078 69.2838Z" fill="#E9AD21"/>
<path d="M38.403 72.6516C38.0088 72.6516 37.6902 72.3312 37.6902 71.9388V62.2062C37.6902 61.812 38.0106 61.4934 38.403 61.4934C38.7954 61.4934 39.1158 61.8138 39.1158 62.2062V71.9388C39.1158 72.333 38.7954 72.6516 38.403 72.6516Z" fill="#E9AD21"/>
<path d="M21.429 45.7145C21.0348 45.7145 20.7162 45.3941 20.7162 45.0017C20.7162 44.6093 21.0366 44.2889 21.429 44.2889H27.3096C27.7038 44.2889 28.0224 44.6093 28.0224 45.0017C28.0224 45.3941 27.702 45.7145 27.3096 45.7145H21.429Z" fill="#E9AD21"/>
<path d="M18.063 52.3098C17.6706 52.3098 17.3502 51.9894 17.3502 51.597C17.3502 51.2046 17.6706 50.8842 18.063 50.8842H27.7938C28.188 50.8842 28.5066 51.2046 28.5066 51.597C28.5066 51.9894 28.1862 52.3098 27.7938 52.3098H18.063Z" fill="#E9AD21"/>
<path d="M21.429 58.9068C21.0348 58.9068 20.7162 58.5864 20.7162 58.194C20.7162 57.8016 21.0366 57.4812 21.429 57.4812H28.431C28.8252 57.4812 29.1438 57.8016 29.1438 58.194C29.1438 58.5864 28.8234 58.9068 28.431 58.9068H21.429Z" fill="#E9AD21"/>
<path d="M21.429 32.5206C21.0348 32.5206 20.7162 32.2002 20.7162 31.8078C20.7162 31.4154 21.0366 31.095 21.429 31.095H28.431C28.8252 31.095 29.1438 31.4154 29.1438 31.8078C29.1438 32.2002 28.8234 32.5206 28.431 32.5206H21.429Z" fill="#E9AD21"/>
<path d="M18.063 39.1176C17.6706 39.1176 17.3502 38.7972 17.3502 38.4048C17.3502 38.0124 17.6706 37.692 18.063 37.692H27.7938C28.188 37.692 28.5066 38.0124 28.5066 38.4048C28.5066 38.7972 28.1862 39.1176 27.7938 39.1176H18.063Z" fill="#E9AD21"/>
<path d="M43.335 57.978C42.9822 57.978 42.678 57.7152 42.6294 57.366L42.3036 55.0872L42.0516 55.0134C41.3424 54.8046 40.6548 54.5202 40.0068 54.1656L39.7764 54.0396L37.9332 55.4202C37.8072 55.5156 37.6596 55.5642 37.5048 55.5642C37.314 55.5642 37.1358 55.4904 37.0008 55.3536L34.6464 52.9992C34.3962 52.749 34.3674 52.3494 34.5798 52.0668L35.9604 50.2254L35.8344 49.995C35.4816 49.3488 35.1954 48.6612 34.9866 47.9502L34.9128 47.6982L32.634 47.3724C32.2848 47.322 32.022 47.0178 32.022 46.665V43.3368C32.022 42.984 32.2848 42.6798 32.634 42.6294L34.9146 42.3036L34.9884 42.0498C35.1936 41.3406 35.478 40.653 35.8326 40.005L35.9586 39.7746L34.578 37.9332C34.3656 37.6506 34.3944 37.251 34.6428 37.0008L36.9972 34.6464C37.1322 34.5114 37.3104 34.4376 37.5012 34.4376C37.6578 34.4376 37.8054 34.488 37.9314 34.5816L39.771 35.9622L40.0032 35.8344C40.6458 35.4798 41.3352 35.1954 42.0498 34.9866L42.3018 34.9128L42.6276 32.634C42.678 32.2848 42.9822 32.022 43.3332 32.022H46.6614C47.0142 32.022 47.3184 32.2848 47.367 32.634L47.6928 34.911L47.9466 34.9848C48.6594 35.1936 49.3488 35.478 49.995 35.8326L50.2254 35.9586L52.0632 34.5798C52.1874 34.4862 52.3368 34.4376 52.4916 34.4376C52.6824 34.4376 52.8606 34.5114 52.9956 34.6464L55.35 37.0008C55.6002 37.251 55.629 37.6506 55.4166 37.9332L54.0378 39.7728L54.1638 40.0032C54.5166 40.6476 54.8028 41.337 55.0098 42.0516L55.0836 42.3054L57.3606 42.6312C57.7098 42.6816 57.9726 42.984 57.9726 43.3386V46.6668C57.9726 47.0196 57.7098 47.3238 57.3606 47.3742L55.0818 47.7L55.008 47.9538C54.801 48.663 54.5166 49.3524 54.162 49.9986L54.036 50.229L55.4166 52.0686C55.629 52.3512 55.6002 52.7526 55.35 53.001L52.9956 55.3554C52.8606 55.4904 52.6824 55.5642 52.4916 55.5642C52.3368 55.5642 52.1892 55.5156 52.065 55.422L50.2236 54.0414L49.9932 54.1674C49.3452 54.522 48.6558 54.8064 47.9484 55.0116L47.6946 55.0854L47.3688 57.366C47.3184 57.7152 47.0142 57.978 46.6632 57.978H43.335ZM39.7368 52.4628C39.8754 52.4628 40.0104 52.5024 40.1256 52.5762C41.031 53.163 42.0282 53.5752 43.0884 53.8038C43.146 53.8164 43.2036 53.8362 43.2594 53.8632C43.4682 53.9676 43.614 54.1692 43.6464 54.3996L43.9542 56.5488H46.0458L46.3536 54.396C46.395 54.1008 46.62 53.8614 46.9116 53.7984C47.97 53.5752 48.9672 53.163 49.8762 52.5744C49.9896 52.5024 50.1246 52.4628 50.265 52.4628C50.4216 52.4628 50.5692 52.5114 50.6934 52.605L52.4286 53.9064L53.9082 52.4268L52.605 50.6916C52.4268 50.4522 52.4142 50.1246 52.578 49.8744C53.1666 48.9672 53.5788 47.97 53.8038 46.9116C53.865 46.62 54.1062 46.395 54.4014 46.3518L56.5524 46.0458V43.9542L54.4032 43.6482C54.1098 43.605 53.8686 43.3818 53.8074 43.092C53.577 42.0228 53.1648 41.0238 52.5798 40.1256C52.4178 39.8754 52.4268 39.546 52.6068 39.3084L53.9064 37.5732L52.4286 36.0936L50.6952 37.395C50.571 37.4886 50.4234 37.5372 50.2668 37.5372C50.157 37.5372 50.0454 37.512 49.9464 37.4616C49.923 37.449 49.8996 37.4364 49.878 37.422C48.9762 36.8352 47.979 36.4212 46.9098 36.1926C46.6182 36.1296 46.395 35.8902 46.3536 35.5968L46.0476 33.4494H43.9578L43.65 35.6004C43.6086 35.8956 43.3836 36.135 43.092 36.198C42.0318 36.423 41.0346 36.8352 40.1292 37.4256C40.014 37.4994 39.879 37.5408 39.7404 37.5408C39.5838 37.5408 39.4362 37.4922 39.312 37.3986L37.575 36.0954L36.0954 37.575L37.3968 39.3102C37.575 39.5478 37.5876 39.8754 37.4256 40.1256C36.8388 41.0328 36.4266 42.03 36.2016 43.0902C36.1404 43.3818 35.8992 43.6068 35.604 43.65L33.4512 43.9578V46.0494L35.6004 46.3554C35.8884 46.3968 36.1206 46.6074 36.1908 46.89C36.423 47.9628 36.8388 48.9726 37.4256 49.878C37.5858 50.1282 37.575 50.4558 37.3968 50.6934L36.0954 52.4322L37.5732 53.9118L39.3102 52.6086C39.4344 52.5168 39.582 52.4664 39.7386 52.4664L39.7368 52.4628ZM44.9982 50.9292C44.2224 50.9292 43.461 50.7762 42.732 50.4756C41.2704 49.869 40.131 48.7314 39.5262 47.268C38.9196 45.8046 38.9196 44.1936 39.5262 42.732C40.131 41.2704 41.2704 40.1328 42.7338 39.5262C43.4574 39.2256 44.217 39.0744 44.9946 39.0744C47.403 39.0744 49.5558 40.5108 50.4756 42.732C51.0822 44.1954 51.0822 45.8064 50.4756 47.2698C49.869 48.7314 48.7314 49.8708 47.2698 50.4756C46.5408 50.778 45.7776 50.931 45.0018 50.931L44.9982 50.9292ZM44.9946 40.5018C44.4042 40.5018 43.8264 40.617 43.2774 40.8438C42.1668 41.3046 41.3028 42.1686 40.842 43.2774C40.383 44.388 40.383 45.6102 40.842 46.7208C41.3028 47.8314 42.1668 48.6972 43.2756 49.1562C43.8264 49.3848 44.4042 49.5 44.9946 49.5C45.558 49.5 46.1106 49.3938 46.6416 49.1868L46.719 49.1562C47.8278 48.6972 48.6918 47.8314 49.1526 46.7226C49.6134 45.6138 49.6134 44.3898 49.1526 43.2792C48.4542 41.5926 46.8198 40.5018 44.991 40.5018H44.9946Z" fill="#E9AD21"/>
</g>
<defs>
<clipPath id="clip0_1_218">
<rect width="90" height="90" fill="white"/>
</clipPath>
</defs>
</svg>
