<svg width="90" height="90" viewBox="0 0 90 90" fill="none" xmlns="http://www.w3.org/2000/svg">
<g clip-path="url(#clip0_1_243)">
<path d="M45 90C20.187 90 0 69.813 0 45C0 20.187 20.187 0 45 0C69.813 0 90 20.187 90 45C90 69.813 69.813 90 45 90ZM45 1.4274C20.9736 1.4274 1.4274 20.9736 1.4274 45C1.4274 69.0264 20.9736 88.5726 45 88.5726C69.0264 88.5726 88.5726 69.0264 88.5726 45C88.5726 20.9736 69.0264 1.4274 45 1.4274Z" fill="#E9AD21"/>
<path d="M44.8794 63.4392C34.713 63.4392 26.442 55.1682 26.442 45C26.442 34.8318 34.713 26.5626 44.8794 26.5626C55.0458 26.5626 63.3168 34.8336 63.3168 45C63.3168 55.1664 55.0458 63.4392 44.8794 63.4392ZM44.8794 27.99C35.4996 27.99 27.8676 35.622 27.8676 45.0018C27.8676 54.3816 35.4996 62.0136 44.8794 62.0136C54.2592 62.0136 61.8912 54.3816 61.8912 45.0018C61.8912 35.622 54.2592 27.99 44.8794 27.99Z" fill="#E9AD21"/>
<path d="M42.6384 56.0664C42.2658 56.0664 41.9526 55.7748 41.9274 55.4022L41.7744 53.199L41.5386 53.1018C40.824 52.8084 40.1508 52.4178 39.5352 51.9426L39.3336 51.7878L37.3482 52.758C37.2492 52.8066 37.1448 52.83 37.0368 52.83C36.7812 52.83 36.5436 52.6932 36.4176 52.4736L34.1766 48.5928C33.9894 48.2688 34.0866 47.853 34.3944 47.6442L36.2232 46.4112L36.189 46.1592C36.1386 45.7758 36.1116 45.3852 36.1116 44.9982C36.1116 44.6112 36.1368 44.2206 36.189 43.8372L36.2232 43.5852L34.3944 42.3522C34.0848 42.1434 33.9894 41.7276 34.1748 41.4036L36.4158 37.5228C36.5418 37.3032 36.7794 37.1664 37.035 37.1664C37.143 37.1664 37.2492 37.1898 37.3464 37.2384L39.3318 38.2086L39.5334 38.0538C40.149 37.5768 40.824 37.188 41.5368 36.8946L41.7726 36.7974L41.9256 34.5942C41.9508 34.2216 42.264 33.93 42.6366 33.93H47.1186C47.4912 33.93 47.8044 34.2216 47.8314 34.5942L47.9844 36.7974L48.2202 36.8946C48.9366 37.188 49.6098 37.5786 50.2254 38.0538L50.427 38.2104L52.4124 37.2402C52.5096 37.1916 52.6158 37.1682 52.7238 37.1682C52.9794 37.1682 53.217 37.305 53.343 37.5246L55.5858 41.4054C55.773 41.7294 55.6776 42.1452 55.368 42.354L53.5392 43.587L53.5734 43.839C53.6238 44.2224 53.6508 44.613 53.6508 45C53.6508 45.387 53.6256 45.7776 53.5734 46.161L53.5392 46.413L55.368 47.646C55.6776 47.8548 55.773 48.2706 55.5858 48.5946L53.343 52.4754C53.2152 52.695 52.9794 52.8318 52.7238 52.8318C52.6158 52.8318 52.5114 52.8066 52.4124 52.7598L50.4252 51.7878L50.2236 51.9444C49.6098 52.4196 48.9348 52.8102 48.2184 53.1054L47.9826 53.2026L47.8296 55.4058C47.8044 55.7784 47.4912 56.07 47.1168 56.07H42.6348L42.6384 56.0664ZM39.4488 50.2236C39.6288 50.2236 39.7998 50.2902 39.9312 50.4108C40.725 51.1398 41.6448 51.6726 42.6672 51.9948C42.9498 52.083 43.1442 52.3314 43.164 52.6266L43.3026 54.639H46.4526L46.593 52.6248C46.6146 52.3314 46.809 52.083 47.0898 51.9948C48.1104 51.6726 49.032 51.1398 49.8276 50.4108C49.959 50.2902 50.1318 50.2236 50.3118 50.2236C50.4216 50.2236 50.526 50.2488 50.6232 50.2956L52.4394 51.183L54.0162 48.456L52.3458 47.331C52.101 47.1654 51.984 46.8738 52.0488 46.5858C52.164 46.0656 52.2216 45.5328 52.2216 45C52.2216 44.4672 52.164 43.9344 52.0488 43.4142C51.9858 43.1262 52.1028 42.8328 52.3458 42.669L54.0162 41.544L52.4394 38.817L50.6232 39.7044C50.5242 39.753 50.4198 39.7764 50.31 39.7764C50.1318 39.7764 49.959 39.7098 49.8276 39.5892C49.032 38.8602 48.1104 38.3274 47.0898 38.0052C46.8072 37.917 46.6128 37.6686 46.593 37.3752L46.4526 35.361H43.3026L43.164 37.3752C43.1442 37.6704 42.948 37.917 42.6672 38.007C41.6448 38.3292 40.725 38.862 39.9312 39.591C39.7998 39.7116 39.6288 39.7782 39.4488 39.7782C39.339 39.7782 39.2346 39.753 39.1356 39.7062L37.3194 38.8188L35.7444 41.5458L37.4148 42.6708C37.6596 42.8364 37.7766 43.128 37.7118 43.416C37.5984 43.9344 37.539 44.4672 37.539 45.0018C37.539 45.5364 37.5966 46.0674 37.7118 46.5876C37.7748 46.8756 37.6578 47.1672 37.413 47.3328L35.7426 48.4578L37.3176 51.1866L39.1338 50.2992C39.2328 50.2524 39.3372 50.2272 39.447 50.2272L39.4488 50.2236Z" fill="#E9AD21"/>
<path d="M44.8794 49.347C42.4818 49.347 40.5323 47.3976 40.5323 45C40.5323 42.6024 42.4818 40.653 44.8794 40.653C47.277 40.653 49.2263 42.6024 49.2263 45C49.2263 47.3976 47.277 49.347 44.8794 49.347ZM44.8794 42.0804C43.2702 42.0804 41.9598 43.3908 41.9598 45C41.9598 46.6092 43.2702 47.9196 44.8794 47.9196C46.4886 47.9196 47.799 46.6092 47.799 45C47.799 43.3908 46.4886 42.0804 44.8794 42.0804Z" fill="#E9AD21"/>
<path d="M44.8794 67.7178C44.4852 67.7178 44.1666 67.3974 44.1666 67.005V59.3946C44.1666 59.0004 44.487 58.6818 44.8794 58.6818C45.2718 58.6818 45.5922 59.0022 45.5922 59.3946V67.005C45.5922 67.3992 45.2718 67.7178 44.8794 67.7178Z" fill="#E9AD21"/>
<path d="M44.8794 31.32C44.4852 31.32 44.1666 30.9996 44.1666 30.6072V22.9914C44.1666 22.5972 44.487 22.2786 44.8794 22.2786C45.2718 22.2786 45.5922 22.599 45.5922 22.9914V30.6072C45.5922 31.0014 45.2718 31.32 44.8794 31.32Z" fill="#E9AD21"/>
<path d="M44.8794 19.9944C42.7572 19.9944 41.031 18.2682 41.031 16.146C41.031 14.0238 42.7572 12.2976 44.8794 12.2976C47.0016 12.2976 48.7278 14.0238 48.7278 16.146C48.7278 18.2682 47.0016 19.9944 44.8794 19.9944ZM44.8794 13.7268C43.5438 13.7268 42.4584 14.8122 42.4584 16.1478C42.4584 17.4834 43.5438 18.5688 44.8794 18.5688C46.215 18.5688 47.3004 17.4834 47.3004 16.1478C47.3004 14.8122 46.215 13.7268 44.8794 13.7268Z" fill="#E9AD21"/>
<path d="M44.8794 77.7006C42.7572 77.7006 41.031 75.9744 41.031 73.854C41.031 71.7336 42.7572 70.0056 44.8794 70.0056C47.0016 70.0056 48.7278 71.7318 48.7278 73.854C48.7278 75.9762 47.0016 77.7006 44.8794 77.7006ZM44.8794 71.433C43.5438 71.433 42.4584 72.5184 42.4584 73.854C42.4584 75.1896 43.5438 76.2732 44.8794 76.2732C46.215 76.2732 47.3004 75.1878 47.3004 73.854C47.3004 72.5202 46.215 71.433 44.8794 71.433Z" fill="#E9AD21"/>
<path d="M62.946 63.783C62.7552 63.783 62.577 63.7092 62.442 63.5742L54.7272 55.8594C54.4482 55.5822 54.4482 55.1286 54.7272 54.8496C54.8622 54.7146 55.0404 54.6408 55.2312 54.6408C55.422 54.6408 55.6002 54.7146 55.7352 54.8496L63.45 62.5644C63.7272 62.8434 63.7272 63.2952 63.45 63.5724C63.315 63.7074 63.1368 63.7812 62.946 63.7812V63.783Z" fill="#E9AD21"/>
<path d="M31.9968 32.832C31.806 32.832 31.6278 32.7582 31.4928 32.6232L28.7982 29.9286C28.6632 29.7936 28.5894 29.6154 28.5894 29.4246C28.5894 29.2338 28.6632 29.0556 28.7982 28.9206C28.9332 28.7856 29.1114 28.7118 29.3022 28.7118C29.493 28.7118 29.6712 28.7856 29.8062 28.9206L32.5008 31.6152C32.6358 31.7502 32.7096 31.9284 32.7096 32.1192C32.7096 32.31 32.6358 32.4882 32.5008 32.6232C32.3658 32.7582 32.1876 32.832 31.9968 32.832Z" fill="#E9AD21"/>
<path d="M65.3526 69.318C64.323 69.318 63.3564 68.9184 62.631 68.193C61.1316 66.6936 61.1316 64.2528 62.631 62.7516C63.3564 62.0262 64.323 61.6266 65.3508 61.6266C66.3786 61.6266 67.3452 62.0262 68.0706 62.7516C68.7978 63.4788 69.1974 64.4454 69.1974 65.4732C69.1974 66.501 68.7978 67.4676 68.0706 68.193C67.3452 68.9184 66.3804 69.318 65.3526 69.318ZM65.3526 63.0522C64.7064 63.0522 64.098 63.3042 63.6408 63.7596C62.6976 64.7046 62.6976 66.24 63.6408 67.1832C64.098 67.6404 64.7064 67.8906 65.3526 67.8906C65.9988 67.8906 66.6072 67.6386 67.0644 67.1832C67.5216 66.7278 67.7736 66.1176 67.7736 65.4714C67.7736 64.8252 67.5216 64.2186 67.0644 63.7596C66.6072 63.3024 65.9988 63.0522 65.3526 63.0522Z" fill="#E9AD21"/>
<path d="M25.5582 31.32C24.0516 31.32 22.6332 30.7332 21.5694 29.6676C19.3698 27.468 19.3698 23.8896 21.5694 21.6882C22.635 20.6226 24.0516 20.0358 25.5582 20.0358C27.0648 20.0358 28.4814 20.6226 29.547 21.6882C30.6108 22.752 31.1958 24.1686 31.1958 25.677C31.1958 27.1854 30.6108 28.602 29.547 29.6658C28.4814 30.7314 27.0648 31.32 25.5582 31.32ZM25.5582 21.4632C24.4332 21.4632 23.373 21.9024 22.5774 22.698C20.934 24.3414 20.934 27.0144 22.5774 28.6578C23.3388 29.4192 24.426 29.8566 25.5582 29.8566C26.6904 29.8566 27.7776 29.4192 28.539 28.6578C30.1824 27.0144 30.1824 24.3414 28.539 22.698C27.7434 21.9024 26.685 21.4632 25.5582 21.4632Z" fill="#E9AD21"/>
<path d="M22.878 45.7164C22.4838 45.7164 22.1652 45.396 22.1652 45.0036C22.1652 44.6112 22.4856 44.2908 22.878 44.2908H30.4848C30.879 44.2908 31.1976 44.6112 31.1976 45.0054C31.1976 45.3996 30.8772 45.7182 30.4848 45.7182L22.878 45.7164Z" fill="#E9AD21"/>
<path d="M62.9046 45.7218C62.5104 45.7218 62.1918 45.4014 62.1918 45.009C62.1918 44.6166 62.5122 44.2962 62.9046 44.2962H67.0068C67.401 44.2962 67.7196 44.6148 67.7196 45.009C67.7196 45.4032 67.3992 45.7218 67.0068 45.7218H62.9046Z" fill="#E9AD21"/>
<path d="M16.0254 48.8484C13.9032 48.8484 12.177 47.1222 12.177 45C12.177 42.8778 13.9032 41.1534 16.0254 41.1534C18.1476 41.1534 19.8738 42.8796 19.8738 45C19.8738 47.1204 18.1476 48.8484 16.0254 48.8484ZM16.0254 42.5808C14.6898 42.5808 13.6044 43.6662 13.6044 45.0018C13.6044 46.3374 14.6898 47.4228 16.0254 47.4228C17.361 47.4228 18.4464 46.3374 18.4464 45.0018C18.4464 43.6662 17.361 42.5808 16.0254 42.5808Z" fill="#E9AD21"/>
<path d="M72.1764 50.6394C70.668 50.6394 69.2514 50.0526 68.1876 48.9888C67.1238 47.925 66.5388 46.5084 66.5388 45C66.5388 43.4916 67.1238 42.075 68.1876 41.0112C69.2514 39.9474 70.668 39.3624 72.1764 39.3624C73.6848 39.3624 75.1014 39.9474 76.1652 41.0112C77.229 42.075 77.8158 43.4916 77.8158 45C77.8158 46.5084 77.229 47.925 76.1652 48.9888C75.1014 50.0526 73.6848 50.6394 72.1764 50.6394ZM72.1764 40.788C71.0496 40.788 69.9912 41.2254 69.1974 42.021C67.554 43.6644 67.554 46.3374 69.1974 47.9808C69.993 48.7764 71.0496 49.2138 72.1764 49.2138C73.3032 49.2138 74.3616 48.7764 75.1572 47.9808C76.8006 46.3374 76.8006 43.6644 75.1572 42.021C74.3616 41.2254 73.3032 40.788 72.1764 40.788Z" fill="#E9AD21"/>
<path d="M55.2366 35.3592C55.0458 35.3592 54.8658 35.2854 54.7326 35.1504C54.5976 35.0154 54.5238 34.8354 54.5238 34.6464C54.5238 34.4556 54.5976 34.2774 54.7326 34.1424L62.595 26.2908C62.73 26.1558 62.91 26.082 63.1008 26.082C63.2916 26.082 63.4698 26.1558 63.6048 26.2908C63.7398 26.4258 63.8136 26.6058 63.8136 26.7966C63.8136 26.9874 63.7398 27.1656 63.6048 27.3006L55.7424 35.1522C55.6074 35.2872 55.4292 35.361 55.2384 35.361L55.2366 35.3592Z" fill="#E9AD21"/>
<path d="M29.2231 61.3944C29.0323 61.3944 28.8541 61.3206 28.7191 61.1856C28.5841 61.0506 28.5103 60.8724 28.5103 60.6816C28.5103 60.4908 28.5841 60.3126 28.7191 60.1776L31.5901 57.3084C31.7251 57.1734 31.9033 57.0996 32.0941 57.0996C32.2849 57.0996 32.4631 57.1734 32.5981 57.3084C32.7331 57.4434 32.8069 57.6216 32.8069 57.8124C32.8069 58.0032 32.7331 58.1814 32.5981 58.3164L29.7271 61.1856C29.5921 61.3206 29.4139 61.3944 29.2231 61.3944Z" fill="#E9AD21"/>
<path d="M65.3526 28.377C64.3248 28.377 63.3583 27.9774 62.6329 27.2502C61.1335 25.7508 61.1335 23.31 62.6329 21.8088C63.3583 21.0834 64.3248 20.6838 65.3544 20.6838C66.384 20.6838 67.3488 21.0834 68.0742 21.8088C68.8014 22.536 69.201 23.5026 69.201 24.5304C69.201 25.5582 68.8014 26.523 68.0742 27.2502C67.347 27.9774 66.3804 28.377 65.3526 28.377ZM65.3526 22.1094C64.7064 22.1094 64.098 22.3614 63.6408 22.8168C63.1836 23.274 62.9317 23.8806 62.9317 24.5286C62.9317 25.1766 63.1836 25.7832 63.639 26.2404C64.0782 26.6796 64.7028 26.9298 65.3508 26.9316C65.9988 26.9316 66.6234 26.6796 67.0626 26.2404C67.5198 25.7832 67.7718 25.1748 67.7718 24.5286C67.7718 23.8824 67.5198 23.274 67.0626 22.8168C66.6054 22.3596 65.9988 22.1094 65.3526 22.1094Z" fill="#E9AD21"/>
<path d="M25.5582 69.9642C24.0516 69.9642 22.6332 69.3774 21.5694 68.3118C19.3698 66.1122 19.3698 62.5338 21.5694 60.3324C22.635 59.2668 24.0516 58.68 25.5582 58.68C27.0648 58.68 28.4814 59.2668 29.547 60.3324C30.6108 61.3962 31.1958 62.8128 31.1958 64.3212C31.1958 65.8296 30.6108 67.2462 29.547 68.31C28.4814 69.3756 27.0648 69.9642 25.5582 69.9642ZM25.5582 60.1074C24.4332 60.1074 23.373 60.5466 22.5774 61.3422C20.934 62.9856 20.934 65.6586 22.5774 67.302C23.3388 68.0634 24.426 68.5008 25.5582 68.5008C26.6904 68.5008 27.7776 68.0634 28.539 67.302C30.1824 65.6586 30.1824 62.9856 28.539 61.3422C27.7434 60.5466 26.685 60.1074 25.5582 60.1074Z" fill="#E9AD21"/>
</g>
<defs>
<clipPath id="clip0_1_243">
<rect width="90" height="90" fill="white"/>
</clipPath>
</defs>
</svg>
