<svg width="90" height="90" viewBox="0 0 90 90" fill="none" xmlns="http://www.w3.org/2000/svg">
<g clip-path="url(#clip0_1_208)">
<path d="M45 90C20.187 90 0 69.813 0 45C0 20.187 20.187 0 45 0C69.813 0 90 20.187 90 45C90 69.813 69.813 90 45 90ZM45 1.4274C20.9736 1.4274 1.4274 20.9736 1.4274 45C1.4274 69.0264 20.9736 88.5726 45 88.5726C69.0264 88.5726 88.5726 69.0264 88.5726 45C88.5726 20.9736 69.0264 1.4274 45 1.4274Z" fill="#E9AD21"/>
<path d="M42.1038 77.6178C41.751 77.6178 41.4468 77.355 41.3982 77.0058L40.7826 72.6894L40.5198 72.621C38.9628 72.216 37.4778 71.6022 36.1062 70.7958L35.8722 70.6572L32.3856 73.2709C32.2614 73.3644 32.1138 73.413 31.959 73.413C31.7682 73.413 31.5882 73.3392 31.4532 73.2042L27.3564 69.1074C27.1062 68.8573 27.0774 68.4576 27.2898 68.175L29.9052 64.6884L29.7666 64.4544C28.9602 63.0846 28.3464 61.5996 27.9414 60.0426L27.873 59.7798L23.5566 59.1642C23.2074 59.1138 22.9446 58.8114 22.9446 58.4587V52.6644C22.9446 52.3116 23.2074 52.0074 23.5566 51.9588L27.8784 51.3414L27.9468 51.0768C28.3482 49.5288 28.9602 48.0456 29.7702 46.6686L29.9088 46.4346L27.2916 42.9462C27.0792 42.6636 27.108 42.264 27.3582 42.0138L31.455 37.917C31.59 37.782 31.77 37.7082 31.9608 37.7082C32.1156 37.7082 32.2632 37.7568 32.3874 37.8504L35.8776 40.4676L36.1116 40.3308C37.4886 39.5226 38.97 38.9106 40.518 38.511L40.7826 38.4426L41.4018 34.1172C41.4522 33.768 41.7546 33.5052 42.1074 33.5052H47.8998C48.2526 33.5052 48.5568 33.768 48.6054 34.1172L49.2228 38.4372L49.4856 38.5056C51.0336 38.9088 52.515 39.5226 53.892 40.3308L54.126 40.4676L57.6198 37.8486C57.744 37.755 57.8916 37.7064 58.0482 37.7064C58.239 37.7064 58.4172 37.7802 58.5522 37.9152L62.649 42.012C62.8974 42.2604 62.9262 42.6618 62.7156 42.9444L60.0966 46.4346L60.2352 46.6686C61.0434 48.0456 61.6572 49.5288 62.0604 51.0768L62.1288 51.3396L66.4488 51.957C66.798 52.0074 67.0608 52.3098 67.0608 52.6626V58.4569C67.0608 58.8097 66.798 59.1138 66.4488 59.1624L62.1234 59.7798L62.055 60.0445C61.6554 61.5925 61.0434 63.0738 60.2352 64.4508L60.0966 64.6848L62.7138 68.175C62.9244 68.4576 62.8956 68.8591 62.6472 69.1074L58.5504 73.2042C58.4154 73.3392 58.2372 73.413 58.0464 73.413C57.8916 73.413 57.744 73.3644 57.618 73.2709L54.1278 70.6518L53.8938 70.7904C52.5168 71.5986 51.0336 72.2124 49.4856 72.6138L49.221 72.6823L48.6036 77.004C48.5532 77.3532 48.2508 77.616 47.898 77.616H42.1056L42.1038 77.6178ZM35.838 69.0768C35.9046 69.0768 35.9694 69.0858 36.0324 69.1038C36.1026 69.1236 36.171 69.1543 36.2304 69.1939C37.8522 70.2468 39.6486 70.9902 41.5692 71.4024C41.8608 71.4654 42.084 71.7048 42.1254 71.9982L42.723 76.1904H47.2788L47.88 71.9928C47.9214 71.6976 48.1464 71.4583 48.438 71.3952C50.346 70.9902 52.1406 70.2468 53.775 69.1884C53.8902 69.1128 54.0252 69.0732 54.1638 69.0732C54.3204 69.0732 54.468 69.1218 54.5922 69.2154L57.9816 71.7589L61.2036 68.5368L58.662 65.1492C58.4838 64.9116 58.4712 64.5823 58.6332 64.3338C59.6916 62.7013 60.4314 60.9048 60.8364 58.9986C60.8976 58.707 61.137 58.482 61.4322 58.4406L65.6334 57.8394V53.2836L61.4394 52.6842C61.1928 52.6482 60.9804 52.4844 60.8832 52.2558C60.8652 52.2126 60.8508 52.1694 60.8418 52.1262C60.4314 50.2236 59.6916 48.4344 58.644 46.809C58.5792 46.7136 58.5396 46.611 58.5252 46.5048C58.4982 46.3158 58.5468 46.1268 58.6602 45.9756L61.2036 42.5862L57.9816 39.3642L54.5904 41.9058C54.4662 41.9994 54.3168 42.0498 54.162 42.0498C54.0234 42.0498 53.8902 42.0103 53.775 41.9346C52.1442 40.878 50.3496 40.1346 48.4398 39.7242C48.3948 39.7152 48.3498 39.7008 48.3102 39.6828C48.0798 39.5838 47.916 39.3714 47.88 39.1266L47.2806 34.9326H42.7248L42.1236 39.1338C42.0822 39.429 41.8572 39.6684 41.5656 39.7314C39.6576 40.1364 37.8612 40.878 36.2304 41.9364C36.1152 42.012 35.9802 42.0516 35.8416 42.0516C35.6868 42.0516 35.5392 42.003 35.415 41.9094L32.0256 39.3678L28.8036 42.5898L31.3452 45.9774C31.5252 46.2168 31.536 46.5444 31.374 46.7946C30.3138 48.4272 29.5704 50.2236 29.1672 52.1316C29.106 52.4232 28.8666 52.6482 28.5714 52.6896L24.3738 53.289V57.8449L28.5642 58.4424C28.8594 58.4838 29.0988 58.707 29.1618 58.9986C29.574 60.9192 30.3174 62.7156 31.3704 64.3374C31.4892 64.5192 31.518 64.7496 31.4496 64.9548C31.4244 65.0286 31.3884 65.0971 31.3434 65.1565L28.8054 68.5404L32.0274 71.7624L35.4114 69.2244C35.5338 69.1326 35.6868 69.0822 35.8398 69.0822L35.838 69.0768ZM30.7818 65.1312V64.314L30.771 65.1312H30.7818Z" fill="#E9AD21"/>
<path d="M45 67.9626C38.1618 67.9626 32.598 62.3988 32.598 55.5606C32.598 48.7224 38.1618 43.1586 45 43.1586C45.3924 43.1586 45.7128 43.479 45.7128 43.8714C45.7128 44.2638 45.3924 44.5842 45 44.5842C38.9484 44.5842 34.0236 49.5072 34.0236 55.5588C34.0236 61.6104 38.9466 66.5352 45 66.5352C51.0534 66.5352 55.9746 61.6122 55.9746 55.5588C55.9746 55.1646 56.295 54.846 56.6874 54.846C57.0798 54.846 57.4002 55.1664 57.4002 55.5588C57.4002 62.397 51.8364 67.9608 44.9982 67.9608L45 67.9626Z" fill="#E9AD21"/>
<path d="M43.9055 60.858C43.7129 60.858 43.5329 60.7824 43.3979 60.6456L36.7235 53.8794C36.4481 53.5986 36.4499 53.1468 36.7307 52.8696C36.8657 52.7364 37.0421 52.6644 37.2311 52.6644C37.4237 52.6644 37.6037 52.74 37.7387 52.8768L43.8983 59.121L54.4607 48.123C54.5975 47.9808 54.7793 47.9034 54.9755 47.9034C55.1609 47.9034 55.3355 47.9736 55.4687 48.1032C55.6073 48.2346 55.6847 48.4128 55.6883 48.6036C55.6919 48.7944 55.6217 48.9744 55.4903 49.1112L44.4203 60.6384C44.2853 60.7788 44.1053 60.8562 43.9127 60.858H43.9055Z" fill="#E9AD21"/>
<path d="M47.4894 31.2984C47.0952 31.2984 46.7766 30.978 46.7766 30.5856V18.4662C46.7766 18.2268 46.8954 18.0036 47.097 17.8704L52.0704 14.58C52.1874 14.5026 52.3242 14.4612 52.4646 14.4612C52.605 14.4612 52.7418 14.5026 52.8588 14.58L57.834 17.8704C58.0338 18.0036 58.1544 18.225 58.1544 18.4662V29.574C58.1544 29.9682 57.834 30.2868 57.4416 30.2868C57.0492 30.2868 56.7288 29.9664 56.7288 29.574V18.8496L52.4682 16.0308L48.2076 18.8496V30.5856C48.2076 30.9798 47.8872 31.2984 47.4948 31.2984H47.4894Z" fill="#E9AD21"/>
<path d="M40.0248 31.8978C39.6306 31.8978 39.312 31.5774 39.312 31.185V26.0244C39.312 25.6302 39.6324 25.3116 40.0248 25.3116H47.4894C47.8836 25.3116 48.2022 25.632 48.2022 26.0244C48.2022 26.4168 47.8818 26.7372 47.4894 26.7372H40.7376V31.1832C40.7376 31.5774 40.4172 31.896 40.0248 31.896V31.8978Z" fill="#E9AD21"/>
<path d="M25.0956 40.6332C24.7014 40.6332 24.3828 40.3128 24.3828 39.9204V29.7216C24.3828 29.3274 24.7032 29.0088 25.0956 29.0088H32.5602C32.9544 29.0088 33.273 29.3292 33.273 29.7216V30.4254C33.273 30.8196 32.9526 31.1382 32.5602 31.1382C32.2668 31.1382 32.0076 30.9618 31.8978 30.69L31.7952 30.4344H25.8102V39.9204C25.8102 40.3146 25.488 40.6332 25.0956 40.6332Z" fill="#E9AD21"/>
<path d="M64.9027 40.6332C64.5085 40.6332 64.1899 40.3128 64.1899 39.9204V24.2388H58.1527V33.8472C58.1527 34.2414 57.8323 34.56 57.4399 34.56C57.0475 34.56 56.7271 34.2396 56.7271 33.8472V23.5242C56.7271 23.13 57.0475 22.8114 57.4399 22.8114H64.9044C65.2986 22.8114 65.6172 23.1318 65.6172 23.5242V39.9186C65.6172 40.3128 65.2969 40.6314 64.9044 40.6314L64.9027 40.6332Z" fill="#E9AD21"/>
<path d="M32.562 35.5787C32.1678 35.5787 31.8492 35.2583 31.8492 34.8659V23.1245C31.8492 22.7303 32.1696 22.4117 32.562 22.4117H40.0266C40.4208 22.4117 40.7394 22.7321 40.7394 23.1245V28.8215C40.7394 29.2157 40.419 29.5343 40.0266 29.5343C39.6342 29.5343 39.3138 29.2139 39.3138 28.8215V23.8373H33.2766V34.8659C33.2766 35.2601 32.9544 35.5787 32.562 35.5787Z" fill="#E9AD21"/>
</g>
<defs>
<clipPath id="clip0_1_208">
<rect width="90" height="90" fill="white"/>
</clipPath>
</defs>
</svg>
